<?xml version="1.0" encoding="utf-8"?>
<!DOCTYPE svg PUBLIC "-//W3C//DTD SVG 1.1//EN" "http://www.w3.org/Graphics/SVG/1.1/DTD/svg11.dtd">
<svg version="1.1" xmlns="http://www.w3.org/2000/svg" xmlns:xlink="http://www.w3.org/1999/xlink" x="0px" y="0px" width="662px"
	 height="407px" viewBox="0 0 662 407" enable-background="new 0 0 662 407" xml:space="preserve">
<g id="Layer_1">
	<g>
		<defs>
			<rect id="SVGID_1_" width="662" height="407"/>
		</defs>
		<clipPath id="SVGID_2_">
			<use xlink:href="#SVGID_1_"  overflow="visible"/>
		</clipPath>
		<g clip-path="url(#SVGID_2_)">
			<g>
				<path fill="#C3CAE0" fill-opacity="0.2" d="M367.143,148.91c-0.846-0.488-1.32-1.15-1.32-1.84v-5.011
					c0-1.104,0.76-2.163,2.113-2.944l71.218-41.114c1.76-1.016,4.613-1.016,6.375,0l71.218,41.114
					c1.352,0.781,2.111,1.84,2.111,2.944v5.011c0,0.69-0.475,1.352-1.319,1.84l-71.373,41.203c-2.112,1.22-5.537,1.22-7.65,0
					L367.143,148.91z"/>
				<path fill="#C3CAE0" fill-opacity="0.2" d="M238.051,74.386c-0.846-0.488-1.321-1.15-1.321-1.84v-5.01
					c0-1.104,0.76-2.164,2.113-2.944l71.218-41.114c1.76-1.016,4.615-1.016,6.375,0l71.218,41.114
					c1.352,0.781,2.111,1.84,2.111,2.944v5.01c0,0.69-0.475,1.352-1.319,1.84l-71.372,41.203c-2.113,1.219-5.538,1.219-7.651,0
					L238.051,74.386z"/>
				<path fill="#C3CAE0" fill-opacity="0.2" d="M498.316,224.636c-0.846-0.487-1.32-1.149-1.32-1.84v-5.01
					c0-1.104,0.76-2.164,2.113-2.944l71.217-41.114c1.761-1.017,4.615-1.017,6.376,0l71.217,41.114
					c1.353,0.78,2.113,1.84,2.113,2.944v5.01c0,0.69-0.476,1.353-1.32,1.84l-71.373,41.204c-2.112,1.219-5.538,1.219-7.649,0
					L498.316,224.636z"/>
				<path fill="#C3CAE0" fill-opacity="0.2" d="M16.826,351.148c-0.846-0.488-1.32-1.15-1.32-1.841v-5.011
					c0-1.104,0.76-2.163,2.112-2.944l71.218-41.113c1.761-1.017,4.615-1.017,6.375,0l71.217,41.113
					c1.354,0.781,2.113,1.841,2.113,2.944v5.011c0,0.69-0.475,1.353-1.32,1.841l-71.373,41.202c-2.112,1.221-5.538,1.221-7.65,0
					L16.826,351.148z"/>
			</g>
			<path fill="#C3CAE0" d="M238.051,53.35c-0.846-0.488-1.321-1.15-1.321-1.84V46.5c0-1.104,0.76-2.164,2.113-2.944l71.218-41.114
				c1.76-1.016,4.615-1.016,6.375,0l71.218,41.114c1.352,0.781,2.111,1.84,2.111,2.944v5.01c0,0.69-0.475,1.352-1.319,1.84
				l-71.372,41.204c-2.113,1.22-5.538,1.22-7.651,0L238.051,53.35z M367.143,127.875c-0.846-0.488-1.32-1.15-1.32-1.84v-5.011
				c0-1.104,0.76-2.163,2.113-2.944l71.218-41.114c1.76-1.016,4.613-1.016,6.375,0l71.218,41.114
				c1.352,0.781,2.111,1.84,2.111,2.944v5.011c0,0.69-0.475,1.352-1.319,1.84l-71.373,41.203c-2.112,1.22-5.537,1.22-7.65,0
				L367.143,127.875z M496.996,201.761c0,0.69,0.475,1.353,1.32,1.84l71.373,41.204c2.111,1.219,5.537,1.219,7.649,0l71.373-41.204
				c0.845-0.488,1.32-1.15,1.32-1.84v-5.01c0-1.105-0.761-2.164-2.113-2.945l-71.217-41.114c-1.761-1.016-4.615-1.016-6.376,0
				l-71.217,41.114c-1.354,0.781-2.113,1.84-2.113,2.945V201.761z M15.505,328.273c0,0.689,0.475,1.352,1.32,1.84l71.373,41.203
				c2.112,1.22,5.538,1.22,7.65,0l71.373-41.203c0.845-0.488,1.32-1.15,1.32-1.84v-5.012c0-1.104-0.76-2.163-2.113-2.943
				l-71.217-41.114c-1.761-1.017-4.615-1.017-6.375,0l-71.218,41.114c-1.353,0.78-2.112,1.84-2.112,2.943V328.273z"/>
			<path fill="#CCDAE8" d="M238.051,52.75c-0.846-0.488-1.321-1.15-1.321-1.84v-5.01c0-1.104,0.76-2.164,2.113-2.944L310.061,1.84
				c1.76-1.016,4.615-1.016,6.375,0l71.218,41.114c1.352,0.781,2.111,1.84,2.111,2.944v5.01c0,0.69-0.475,1.352-1.319,1.84
				l-72.01,41.571c-1.76,1.016-4.615,1.016-6.375,0L238.051,52.75z M367.143,127.274c-0.846-0.488-1.32-1.15-1.32-1.84v-5.011
				c0-1.104,0.76-2.163,2.113-2.944l71.218-41.114c1.76-1.016,4.613-1.016,6.375,0l71.218,41.114
				c1.352,0.781,2.111,1.84,2.111,2.944v5.011c0,0.69-0.475,1.352-1.319,1.84l-72.01,41.571c-1.762,1.016-4.615,1.016-6.375,0
				L367.143,127.274z M496.996,201.16c0,0.69,0.475,1.352,1.32,1.84l72.01,41.572c1.761,1.016,4.615,1.016,6.376,0L648.712,203
				c0.845-0.488,1.32-1.15,1.32-1.84v-5.01c0-1.105-0.761-2.164-2.113-2.945l-71.217-41.114c-1.761-1.016-4.615-1.016-6.376,0
				l-71.217,41.114c-1.354,0.781-2.113,1.84-2.113,2.945V201.16z M15.505,327.672c0,0.69,0.475,1.353,1.32,1.84l72.01,41.571
				c1.761,1.016,4.615,1.016,6.375,0l72.01-41.571c0.845-0.487,1.32-1.149,1.32-1.84v-5.011c0-1.104-0.76-2.163-2.113-2.944
				l-71.217-41.113c-1.761-1.017-4.615-1.017-6.375,0l-71.218,41.113c-1.353,0.781-2.112,1.84-2.112,2.944V327.672z"/>
			<path fill="#E3EEFA" d="M238.357,46.916c-1.76-1.017-1.76-2.664,0-3.681L310.062,1.84c1.76-1.016,4.615-1.016,6.375,0
				l71.704,41.395c1.762,1.017,1.762,2.664,0,3.681l-71.704,41.395c-1.76,1.017-4.615,1.017-6.375,0L238.357,46.916z
				 M367.449,121.44c-1.76-1.016-1.76-2.664,0-3.68l71.705-41.395c1.76-1.016,4.613-1.016,6.375,0l71.703,41.395
				c1.762,1.016,1.762,2.664,0,3.68l-71.703,41.395c-1.762,1.016-4.615,1.016-6.375,0L367.449,121.44z M498.623,193.486
				c-1.76,1.017-1.76,2.664,0,3.681l71.704,41.396c1.761,1.016,4.615,1.016,6.376,0l71.704-41.396c1.76-1.017,1.76-2.664,0-3.681
				l-71.704-41.395c-1.761-1.016-4.615-1.016-6.376,0L498.623,193.486z M17.133,319.998c-1.76,1.016-1.76,2.664,0,3.68
				l71.705,41.396c1.76,1.017,4.615,1.017,6.375,0l71.705-41.396c1.76-1.016,1.76-2.664,0-3.68l-71.705-41.395
				c-1.76-1.017-4.615-1.017-6.375,0L17.133,319.998z"/>
			<g display="none">
				<path display="inline" fill="#B1C2D4" d="M392.878,139.726c-0.334-0.193-0.585-0.427-0.733-0.686
					c-0.203-0.351,0.552-0.621,1.006-0.359l20.657,11.926c0.279,0.161,0.49,0.358,0.614,0.574c0.213,0.367-0.578,0.649-1.052,0.375
					L392.878,139.726z"/>
				<path display="inline" fill="#B1C2D4" d="M263.786,65.202c-0.334-0.193-0.585-0.428-0.734-0.686
					c-0.203-0.351,0.553-0.621,1.006-0.359l20.659,11.926c0.279,0.161,0.489,0.357,0.614,0.573c0.212,0.367-0.578,0.649-1.053,0.375
					L263.786,65.202z"/>
				<path display="inline" fill="#B1C2D4" d="M524.052,215.453c-0.334-0.193-0.585-0.428-0.734-0.686
					c-0.202-0.353,0.553-0.621,1.007-0.359l20.658,11.926c0.278,0.161,0.489,0.357,0.613,0.573c0.212,0.368-0.578,0.649-1.052,0.376
					L524.052,215.453z"/>
			</g>
			<path fill="#BCA8EF" d="M249.922,120.843c-19.013-10.976-19.013-28.772,0-39.749l18.094-10.446l5.101,2.944l-18.095,10.446
				c-16.196,9.351-16.196,24.51,0,33.86l72.23,41.698c9.725,5.614,13.457,13.378,11.198,20.642l62.303-35.968l5.101,2.945
				l-63.635,36.736c13.242-1.852,27.79,0.207,38.129,6.176l72.229,41.698c16.196,9.35,42.457,9.35,58.653,0l18.094-10.446
				l5.101,2.944L516.33,234.77c-19.013,10.977-49.84,10.977-68.854,0l-72.229-41.697c-12.965-7.485-33.987-7.485-46.952,0
				l-23.945,13.822l-0.937-0.541l-5.173-2.901l23.912-13.805c12.965-7.485,12.965-19.62,0-27.106L249.922,120.843z"/>
			<path fill="#C3D1D8" d="M342.219,183.952c13.242-1.853,27.79,0.207,38.129,6.176l72.229,41.698c16.196,9.35,42.457,9.35,58.653,0
				l18.094-10.446l5.101,2.944L516.33,234.77c-19.013,10.977-49.84,10.977-68.854,0l-72.229-41.697
				c-12.965-7.485-33.987-7.485-46.952,0L342.219,183.952"/>
			<g>
				<path fill="#C3CAE0" fill-opacity="0.2" d="M183.397,254.986c-0.846-0.487-1.321-1.149-1.321-1.84v-5.01
					c0-1.104,0.76-2.164,2.113-2.945l71.218-41.113c1.76-1.016,4.614-1.016,6.375,0L333,245.191
					c1.352,0.781,2.111,1.841,2.111,2.945v5.01c0,0.69-0.475,1.353-1.319,1.84l-71.373,41.203c-2.112,1.221-5.537,1.221-7.65,0
					L183.397,254.986z"/>
			</g>
			<path fill="#4D00C6" d="M183.397,233.952c-0.846-0.488-1.321-1.15-1.321-1.841v-5.01c0-1.104,0.76-2.164,2.113-2.944
				l71.218-41.114c1.76-1.016,4.614-1.016,6.375,0L333,224.157c1.352,0.78,2.111,1.84,2.111,2.944v5.01
				c0,0.69-0.475,1.353-1.319,1.841l-71.373,41.203c-2.112,1.22-5.537,1.22-7.65,0L183.397,233.952z"/>
			<path fill="#4D00C6" d="M183.397,233.352c-0.846-0.488-1.321-1.15-1.321-1.841V226.5c0-1.104,0.76-2.163,2.113-2.943
				l71.218-41.115c1.76-1.016,4.614-1.016,6.375,0L333,223.557c1.352,0.78,2.111,1.84,2.111,2.943v5.011
				c0,0.69-0.475,1.353-1.319,1.841l-72.01,41.57c-1.761,1.018-4.615,1.018-6.375,0L183.397,233.352z"/>
			<path fill="#4D00C6" d="M258.596,269.55l76.518-44.174v6.781c0,0.276-0.19,0.541-0.528,0.735l-73.387,42.366
				c0,0-1.302,0.752-2.603,0.601C258.596,273.456,258.596,269.55,258.596,269.55z"/>
			<path fill="#4D00C6" d="M258.595,269.55l-76.518-44.173v6.78c0,0.276,0.19,0.541,0.528,0.737l73.387,42.365
				c0,0,1.302,0.752,2.603,0.602C258.595,273.457,258.595,269.55,258.595,269.55z"/>
			<path fill="#6A00FF" d="M183.704,223.837l71.704-41.395c1.761-1.016,4.615-1.016,6.375,0l71.704,41.395
				c1.761,1.017,1.761,2.664,0,3.681l-71.704,41.395c-1.761,1.016-4.615,1.016-6.375,0l-71.704-41.395
				C181.943,226.501,181.943,224.854,183.704,223.837z"/>
			<path display="none" fill="#FFFFFF" d="M253.668,217.218l20.621,3.19c4.123,0.637,6.57,3.084,5.466,5.465
				c-1.105,2.38-5.344,3.793-9.467,3.154l-20.621-3.189c-4.123-0.638-6.57-3.084-5.465-5.465
				C245.307,217.993,249.545,216.58,253.668,217.218z M244.509,217.547c-2.514,1.402-3.669,3.529-2.701,5.616l5.526,11.903
				c1.42,3.062,6.869,4.877,12.171,4.058c5.302-0.819,8.448-3.966,7.027-7.026l-1.165-2.511l4.349,0.672
				c5.302,0.821,10.751-0.995,12.172-4.056c1.42-3.061-1.726-6.207-7.027-7.027l-20.621-3.189
				C250.623,215.427,246.937,216.095,244.509,217.547z"/>
			<g display="none">
				<path display="inline" fill="#405EA8" d="M209.132,245.803c-0.334-0.191-0.585-0.427-0.735-0.686
					c-0.202-0.352,0.553-0.621,1.007-0.359l20.658,11.926c0.279,0.161,0.49,0.358,0.614,0.574c0.212,0.367-0.578,0.649-1.052,0.375
					L209.132,245.803z"/>
			</g>
			<path fill="#C3D1D8" d="M131.651,299.624l85.354-49.274l5.101,2.943l-85.332,49.262L131.651,299.624z"/>
		</g>
	</g>
	<path fill="#333333" d="M589.881,185.465c-10.876-6.155-26.797-6.914-35.557-1.694c-8.761,5.218-7.045,14.441,3.829,20.596
		c9.829,5.562,23.777,6.72,32.84,3.039l-13.759-7.79l-4.03,2.401l-5.694-3.223l4.029-2.4l-4.34-2.457
		c-4.934-2.792-5.294-5.747-1.67-7.907c1.736-1.032,3.937-1.898,3.937-1.898l4.848,2.744l-2.001,1.191
		c-1.969,1.175-1.067,2.401,0.49,3.284l3.693,2.091l4.398-2.623l4.993,3.643l-3.697,2.201l13.763,7.788
		C602.06,199.097,599.712,191.029,589.881,185.465L589.881,185.465z"/>
	<path fill="#F77C7C" d="M417.62,220.999l-2.738-7.736l5.538-2.239c0.229-0.092,0.322-0.428,0.211-0.745l-0.782-2.209
		c-0.055-0.153-0.148-0.278-0.267-0.355c-0.116-0.075-0.244-0.093-0.353-0.05l-5.515,2.235l-2.758-7.651
		c-0.055-0.152-0.148-0.278-0.266-0.354c-0.118-0.077-0.245-0.094-0.354-0.05l-1.578,0.663c-0.229,0.093-0.321,0.429-0.209,0.747
		l2.767,7.679l-5.542,2.308c-0.11,0.044-0.194,0.146-0.234,0.289c-0.039,0.141-0.033,0.303,0.025,0.458l0.779,2.207
		c0.056,0.158,0.153,0.286,0.266,0.359c0.11,0.072,0.238,0.097,0.353,0.046l5.522-2.303l2.729,7.704
		c0.057,0.158,0.15,0.284,0.265,0.358c0.111,0.072,0.237,0.098,0.354,0.047l1.582-0.66c0.11-0.044,0.194-0.148,0.233-0.289
		C417.686,221.317,417.675,221.152,417.62,220.999z"/>
</g>
<g id="Layer_2_1_">
	<g id="Layer_2">
		<path fill="#FFFFFF" d="M245.519,220.559l1.566,0.52C246.543,220.945,246.018,220.772,245.519,220.559z"/>
		<path fill="#FFFFFF" d="M281.253,219.268c3.261,2.527,3.015,6.449-0.553,8.764c-2.71,1.758-6.558,2.079-9.681,1.018l-0.07-0.02
			l-23.866-7.951l-1.566-0.52h-0.003c-0.711-0.301-1.375-0.682-1.964-1.139c-3.261-2.528-3.015-6.451,0.552-8.761
			c2.657-1.726,6.4-2.064,9.489-1.085l0.004,0.002l0.258,0.086l0.001-0.001l23.883,7.954l1.529,0.508
			C279.986,218.426,280.658,218.81,281.253,219.268z"/>
		<path fill="#FFFFFF" d="M279.268,218.123l-1.529-0.508C278.267,217.744,278.778,217.916,279.268,218.123z"/>
		<path fill="#FFFFFF" d="M257.542,240.201c4.811,0.332,9.092-2.163,9.559-5.572c0.336-2.442-1.372-4.688-4.134-5.889h-0.003
			l-1.79-0.594l-3.498-1.156l-2.529-0.84l-0.001,0.002c-0.494-0.1-1.01-0.17-1.54-0.207c-4.811-0.331-9.088,2.164-9.558,5.575
			c-0.32,2.325,1.218,4.479,3.76,5.716l0.002-0.002l2.442,0.828l3.183,1.078l2.461,0.832
			C256.424,240.084,256.973,240.162,257.542,240.201z"/>
		<line fill="#FFFFFF" x1="271.11" y1="229.08" x2="271.02" y2="229.049"/>
	</g>
	<path fill="#353535" d="M86.785,311.184c4.466,3.455,4.96,8.149,1.204,10.389c-3.757,2.236-11.101,1.622-16.232-1.438
		c-5.337-3.185-5.73-7.692-1.205-10.388C75.077,307.052,82.222,307.653,86.785,311.184z"/>
	<path fill="#353535" d="M90.284,323.129c-7.429,4.423-10.609,11.87-3.776,18.28c0.823,0.772,2.304,1.104,3.279,0.522l30.057-17.9
		c0.976-0.582,0.552-1.541-0.607-2.115C109.612,317.168,97.713,318.702,90.284,323.129z"/>
	<path fill="#333333" d="M446.616,102.723c-0.457,0.973-1.234,1.905-2.344,2.776c0.228-1.234-0.519-2.538-2.168-3.643
		c-0.225,1.149-0.871,2.27-1.97,3.308c-2.998,0.024-5.834,0.604-7.729,1.716c-3.651,2.14-2.496,5.44,2.566,7.376
		c0.72,0.275,1.475,0.511,2.263,0.7c-5.871,3.073-14.396,4.531-23.206,4.313c0.786,0.85,2.04,1.646,3.716,2.287
		c3.18,1.215,7.165,1.602,10.586,1.192c-1.13,0.625-2.569,1.066-4.146,1.321c0.036,0.015,0.075,0.029,0.113,0.044
		c4.449,1.7,10.428,1.78,14.292,0.331c-0.344,0.404-0.816,0.791-1.417,1.142c-0.424,0.249-0.896,0.471-1.412,0.663
		c4.483,0.901,9.576,0.483,12.545-1.183c0.202,2.264-1.183,4.497-4.278,6.311c-0.534,0.312-1.105,0.602-1.71,0.873
		c5.545-0.701,10.531-2.156,14.258-4.34c12.165-7.128,4.829-16.367-7.297-21.001c-0.397-0.153-0.803-0.301-1.204-0.441
		C448.066,105.218,447.575,103.947,446.616,102.723z"/>
	<path fill="#3D3D3D" d="M305.168,59.486c-0.113-0.163,0.048-0.257,0.483-0.285c9.5-0.816,17.463-2.845,23.892-6.088
		c4.287-2.163,7.503-4.787,9.65-7.873c0.053-0.082,0.128-0.203,0.224-0.361c0.099-0.159,0.162-0.273,0.194-0.344
		c0.16-0.247,0.502-0.336,1.019-0.269c0.521,0.066,0.767,0.245,0.739,0.533c-0.032,0.373-0.117,0.828-0.257,1.365
		c-0.462,1.632-1.465,3.221-3.003,4.766c-1.538,1.545-3.414,2.875-5.621,3.989c-3.412,1.721-7.396,2.984-11.951,3.787
		c-4.555,0.803-9.412,1.148-14.571,1.035c-0.27-0.001-0.475-0.035-0.614-0.102C305.269,59.601,305.208,59.549,305.168,59.486z
		 M303.152,48.775c-1.919-0.925-3.188-1.903-3.807-2.936c-0.62-1.031-0.632-2.04-0.037-3.026c0.541-0.903,1.536-1.859,2.986-2.865
		c0.507-0.338,1.358-0.877,2.553-1.617l-0.709-0.342c-1.78-0.858-3.129-1.357-4.047-1.497c-1.292-0.171-2.432-0.007-3.417,0.49
		l-0.262,0.131c-0.638,0.405-0.971,0.86-0.993,1.366c-0.025,0.506,0.332,1.012,1.068,1.518c0.469,0.312,0.57,0.576,0.304,0.793
		l-4.358,1.623c-0.483,0.134-0.918,0.107-1.309-0.081c-0.083-0.041-0.169-0.093-0.258-0.157c-2.104-1.381-3.026-2.727-2.767-4.037
		c0.257-1.31,1.291-2.49,3.097-3.538l0.821-0.414c2.493-1.259,5.26-1.845,8.299-1.761c0.5,0.025,1.003,0.067,1.504,0.126
		c0.506,0.061,0.938,0.124,1.298,0.188c0.359,0.066,0.82,0.19,1.38,0.375c0.56,0.183,0.954,0.307,1.177,0.374
		c0.225,0.063,0.646,0.235,1.267,0.512c0.62,0.277,0.986,0.443,1.096,0.496l10.097,4.865c0.722,0.349,1.465,0.625,2.227,0.831
		c0.761,0.205,1.351,0.333,1.767,0.384c0.419,0.05,1.095,0.127,2.028,0.232c0.382,0.055,0.671,0.128,0.864,0.223
		c0.222,0.106,0.33,0.245,0.322,0.414c0.188,1.88,0.288,2.899,0.302,3.058c-0.012,0.253-0.301,0.427-0.868,0.52
		c-0.64-0.006-1.228-0.025-1.763-0.057c-0.536-0.032-0.922-0.056-1.159-0.074c-0.238-0.017-0.668-0.067-1.291-0.151
		c-0.621-0.084-1.045-0.138-1.271-0.161c0.471,1.435,0.325,2.552-0.439,3.348c-0.465,0.509-1.244,1.04-2.338,1.592
		c-1.684,0.85-3.727,1.229-6.131,1.139C307.984,50.569,305.572,49.941,303.152,48.775z M307.959,45.527
		c1.084,0.521,2.168,0.833,3.248,0.933c1.08,0.099,1.98-0.033,2.702-0.396c0.066-0.034,0.145-0.087,0.237-0.161
		c0.092-0.074,0.161-0.123,0.205-0.144c0.612-0.61,0.572-1.331-0.121-2.161c-0.288-0.376-0.684-0.745-1.189-1.107
		c-0.506-0.363-0.949-0.639-1.327-0.833c-0.379-0.193-1.014-0.504-1.903-0.933l-1.043-0.503c-1.269,0.641-2.119,1.179-2.554,1.618
		C304.986,43.144,305.567,44.374,307.959,45.527z M335.168,45.049c-0.065-0.076-0.112-0.163-0.135-0.26
		c0.074-0.504,0.278-0.924,0.615-1.257c0.553-0.554,1.209-1.035,1.969-1.445c0.19-0.125,0.412-0.222,0.665-0.295
		c1.094-0.442,1.893-0.64,2.396-0.592c0.253,0.036,0.548,0.135,0.882,0.295l0.292,0.141c0.973,0.469,1.913,1.127,2.819,1.973
		c0.902,0.847,1.389,1.651,1.451,2.415c0.003,0.109-0.04,0.185-0.129,0.229c-0.043,0.022-0.1,0.038-0.172,0.046
		c-0.215,0.027-0.4-0.03-0.556-0.171c-1.612-1.574-2.891-2.589-3.836-3.046c-0.307-0.146-0.572-0.232-0.799-0.254
		c-0.553-0.051-1.331,0.178-2.337,0.686c-0.371,0.187-0.78,0.421-1.229,0.701c-0.464,0.317-0.883,0.61-1.26,0.882
		c-0.129,0.066-0.246,0.098-0.344,0.091c-0.102-0.003-0.167-0.025-0.201-0.062C335.233,45.112,335.203,45.086,335.168,45.049z"/>
</g>
</svg>
